<svg xmlns="http://www.w3.org/2000/svg" viewBox="0 -4 637 90" fill="#000000">
  <path d="M0,26.46h34.91v42h16.26V26.46h34.91v-13.79H0v13.79ZM228.34,12.67h-17.85l-37.54,55.79h19.13l8.5-13.07h41.99l8.5,13.07h19.13l-37.54-55.79h-4.3ZM208.5,43.2l11.92-18.33h2.3l11.92,18.33h-26.13ZM350.44,25.42v-14.35l-59.38,15.54v-13.95h-16.1v55.79h16.1v-12.19l59.46,13.79v-14.35l-62.33-14.27,62.25-16.02ZM160.95,42.6c2.74-1.2,4.89-2.99,6.46-5.38,1.57-2.39,2.35-5.29,2.35-8.69,0-5.05-1.66-8.95-4.98-11.72-3.32-2.76-7.74-4.14-13.27-4.14h-59.46v55.79h15.86v-10.52l61.69,12.11v-13.39l-65.11-12.27h47.02c3.56,0,6.71-.6,9.44-1.79ZM107.91,33.23v-7.81h40.57c1.28,0,2.32.35,3.15,1.04.82.69,1.24,1.65,1.24,2.87s-.41,2.18-1.24,2.87c-.82.69-1.87,1.04-3.15,1.04h-40.57ZM516.81,14.74c-7.47-2.44-16.22-3.67-26.26-3.67s-18.8,1.22-26.26,3.67c-7.47,2.44-13.22,5.89-17.25,10.32-4.04,4.44-6.06,9.6-6.06,15.5s2.02,11.07,6.06,15.5c4.04,4.44,9.79,7.88,17.25,10.32,7.46,2.44,16.22,3.67,26.26,3.67s18.8-1.22,26.26-3.67c7.46-2.44,13.22-5.88,17.25-10.32,4.04-4.44,6.06-9.6,6.06-15.5s-2.02-11.07-6.06-15.5c-4.04-4.44-9.79-7.88-17.25-10.32ZM519.32,48.78c-2.5,2.34-6.18,4.17-11.04,5.5-4.86,1.33-10.77,1.99-17.73,1.99s-12.87-.66-17.73-1.99c-4.86-1.33-8.54-3.16-11.04-5.5-2.5-2.34-3.75-5.07-3.75-8.21s1.25-5.87,3.75-8.21c2.5-2.34,6.18-4.17,11.04-5.5,4.86-1.33,10.77-1.99,17.73-1.99s12.87.67,17.73,1.99c4.86,1.33,8.54,3.16,11.04,5.5,2.5,2.34,3.75,5.08,3.75,8.21s-1.25,5.87-3.75,8.21ZM615.4,42.6c2.74-1.2,4.89-2.99,6.46-5.38,1.57-2.39,2.35-5.29,2.35-8.69,0-5.05-1.66-8.95-4.98-11.72-3.32-2.76-7.74-4.14-13.27-4.14h-59.46v55.79h15.86v-10.52l61.69,12.11v-13.39l-65.12-12.27h47.02c3.56,0,6.71-.6,9.44-1.79ZM562.36,33.23v-7.81h40.57c1.27,0,2.32.35,3.15,1.04.82.69,1.24,1.65,1.24,2.87s-.41,2.18-1.24,2.87c-.82.69-1.87,1.04-3.15,1.04h-40.57ZM440.98,12.67h-86.08v13.79h34.91v42h16.26V26.46h34.91v-13.79Z"/>
</svg>
